<svg width="115" height="115" viewBox="0 0 115 115" fill="none" xmlns="http://www.w3.org/2000/svg">
<rect width="115" height="115" fill="#005FFE"/>
<rect width="115" height="115" fill="url(#paint0_linear_767_15)"/>
<path d="M28.6667 79.6666V71.1666H34.3333V39.9999C34.3333 38.4416 34.8882 37.1076 35.9979 35.9978C37.1076 34.8881 38.4417 34.3333 40 34.3333H82.5V39.9999H40V71.1666H57V79.6666H28.6667ZM65.5 79.6666C64.6972 79.6666 64.0243 79.3951 63.4812 78.852C62.9382 78.3089 62.6667 77.636 62.6667 76.8333V48.4999C62.6667 47.6971 62.9382 47.0242 63.4812 46.4812C64.0243 45.9381 64.6972 45.6666 65.5 45.6666H82.5C83.3028 45.6666 83.9757 45.9381 84.5187 46.4812C85.0618 47.0242 85.3333 47.6971 85.3333 48.4999V76.8333C85.3333 77.636 85.0618 78.3089 84.5187 78.852C83.9757 79.3951 83.3028 79.6666 82.5 79.6666H65.5ZM68.3333 71.1666H79.6667V51.3333H68.3333V71.1666Z" fill="white"/>
<defs>
<linearGradient id="paint0_linear_767_15" x1="57.5" y1="0" x2="57.5" y2="115" gradientUnits="userSpaceOnUse">
<stop stop-color="#0459F7"/>
<stop offset="1" stop-color="#143DD6"/>
</linearGradient>
</defs>
</svg>
